<?xml version="1.0" encoding="UTF-8" standalone="no"?>
<svg width="600px" height="600px" viewBox="0 0 600 600" version="1.1" xmlns="http://www.w3.org/2000/svg" xmlns:xlink="http://www.w3.org/1999/xlink">
    <!-- Generator: Sketch Beta 39.1 (31721) - http://www.bohemiancoding.com/sketch -->
    <title>Icon</title>
    <desc>Created with Sketch Beta.</desc>
    <defs></defs>
    <g id="Page-1" stroke="none" stroke-width="1" fill="none" fill-rule="evenodd" opacity="0.95">
        <g id="Icon" fill="#4F6DA1">
            <g id="31337" transform="translate(0.000000, 85.000000)">
                <path d="M127.590428,382.600267 C138.564376,393.299865 138.564376,410.633786 127.590428,421.333384 C122.102869,426.683754 114.896936,429.357798 107.691004,429.357798 C100.521358,429.357798 93.3517124,426.682613 87.8641534,421.333384 C31.2022977,366.123455 0,292.723638 0,214.687898 C0,136.652158 31.1660106,63.2534815 87.791579,8.11431226 C98.7655264,-2.58528643 116.543906,-2.58528643 127.517854,8.11431226 C138.491801,18.813911 138.491801,36.1478315 127.517854,46.8474302 C81.4998492,91.6430834 56.1866106,151.275513 56.1866106,214.687898 C56.1866106,278.100282 81.5361364,337.733853 127.590428,382.600267 L127.590428,382.600267 Z M511.459693,8.00703095 C500.449458,-2.69256774 482.671078,-2.65718773 471.733418,8.04241096 C460.759471,18.7420097 460.759471,36.0759302 471.733418,46.7755289 C517.78771,91.6065621 543.137236,151.238992 543.137236,214.687898 C543.137236,278.101423 517.823997,337.697332 471.84345,382.564887 C460.869503,393.264485 460.869503,410.598406 471.84345,421.298004 C477.331009,426.648374 484.536942,429.322418 491.706587,429.322418 C498.91252,429.322418 506.082166,426.647233 511.569725,421.298004 C568.157836,366.086934 599.323846,292.723638 599.323846,214.687898 C599.323846,136.581398 568.121548,63.1815802 511.459693,8.00703095 L511.459693,8.00703095 Z M177.924267,214.687898 C177.924267,182.981706 190.581471,153.200871 213.553601,130.731143 C224.527549,120.031544 224.527549,102.697623 213.553601,91.9980247 C202.579654,81.298426 184.801274,81.298426 173.827326,91.9980247 C140.247633,124.811269 121.737656,168.35835 121.737656,214.687898 C121.737656,261.052825 140.247633,304.636428 173.901071,337.376629 C179.38863,342.726999 186.558276,345.401043 193.764209,345.401043 C200.970142,345.401043 208.139787,342.725858 213.627346,337.376629 C224.601294,326.677031 224.601294,309.30773 213.627346,298.643511 C190.581471,276.210305 177.924267,246.430611 177.924267,214.687898 L177.924267,214.687898 Z M425.423945,91.999166 C414.413711,81.2641873 396.635331,81.3349473 385.697671,91.999166 C374.723723,102.698765 374.723723,120.032685 385.697671,130.732284 C408.706088,153.165491 421.399579,182.981706 421.399579,214.687898 C421.399579,246.430611 408.742375,276.246826 385.770245,298.644653 C374.796298,309.344251 374.796298,326.678172 385.770245,337.377771 C391.257804,342.728141 398.427449,345.402184 405.633382,345.402184 C412.839315,345.402184 420.008961,342.726999 425.49652,337.377771 C459.077384,304.636428 477.58619,261.052825 477.58619,214.687898 C477.58619,168.32297 459.077384,124.775889 425.423945,91.999166 L425.423945,91.999166 Z M299.661923,159.905952 C268.642232,159.905952 243.475313,184.443699 243.475313,214.687898 C243.475313,244.967477 268.642232,269.469843 299.661923,269.469843 C330.717902,269.469843 355.848534,244.967477 355.848534,214.687898 C355.848534,184.443699 330.717902,159.905952 299.661923,159.905952 L299.661923,159.905952 Z" id="Shape"></path>
            </g>
        </g>
    </g>
</svg>