<?xml version="1.0" encoding="UTF-8" standalone="no"?>
<svg width="1360px" height="248px" viewBox="0 0 1360 248" version="1.1" xmlns="http://www.w3.org/2000/svg" xmlns:xlink="http://www.w3.org/1999/xlink">
    <!-- Generator: Sketch Beta 39.1 (31721) - http://www.bohemiancoding.com/sketch -->
    <title>Group</title>
    <desc>Created with Sketch Beta.</desc>
    <defs></defs>
    <g id="Page-1" stroke="none" stroke-width="1" fill="none" fill-rule="evenodd" opacity="0.95">
        <g id="Logo">
            <g id="Group">
                <path d="M397.435897,243.847287 L397.435897,4.15271266 L447.600666,4.15271266 L447.600666,113.45211 L449.095643,113.45211 L539.126453,4.15271266 L594.938912,4.15271266 L506.236969,110.462157 L601.084926,243.847287 L541.119755,243.847287 L470.025315,143.683858 L447.600666,170.593436 L447.600666,243.847287 L397.435897,243.847287 Z M709.752543,0 C727.470872,0 743.472499,2.87918532 757.757902,8.63764233 C772.043305,14.3960993 784.196789,22.6460727 794.218719,33.3878098 C804.240649,44.1295469 811.936933,57.1689343 817.307801,72.506363 C822.67867,87.8437918 825.364064,105.03585 825.364064,124.083054 C825.364064,143.130258 822.67867,160.294632 817.307801,175.576691 C811.936933,190.85875 804.240649,203.870453 794.218719,214.61219 C784.196789,225.353927 772.043305,233.603901 757.757902,239.362358 C743.472499,245.120815 727.470872,248 709.752543,248 C691.923474,248 675.894164,245.120815 661.664131,239.362358 C647.434097,233.603901 635.308298,225.353927 625.286368,214.61219 C615.264438,203.870453 607.568154,190.85875 602.197285,175.576691 C596.826417,160.294632 594.141023,143.130258 594.141023,124.083054 C594.141023,105.03585 596.826417,87.8437918 602.197285,72.506363 C607.568154,57.1689343 615.264438,44.1295469 625.286368,33.3878098 C635.308298,22.6460727 647.434097,14.3960993 661.664131,8.63764233 C675.894164,2.87918532 691.923474,0 709.752543,0 L709.752543,0 Z M709.752543,41.8593436 C699.896723,41.8593436 691.010006,43.7695723 683.092128,47.5900871 C675.17425,51.4106018 668.419238,56.8921277 662.82689,64.0348292 C657.234542,71.1775307 652.915765,79.8150866 649.870427,89.9477562 C646.825089,100.080426 645.302443,111.458745 645.302443,124.083054 C645.302443,136.596624 646.825089,147.919574 649.870427,158.052244 C652.915765,168.184913 657.234542,176.794785 662.82689,183.882117 C668.419238,190.969448 675.17425,196.42329 683.092128,200.243804 C691.010006,204.064319 699.896723,205.974548 709.752543,205.974548 C719.497624,205.974548 728.356656,204.064319 736.329904,200.243804 C744.303152,196.42329 751.058164,190.969448 756.595142,183.882117 C762.13212,176.794785 766.423213,168.184913 769.468551,158.052244 C772.513889,147.919574 774.036535,136.596624 774.036535,124.083054 C774.036535,111.458745 772.513889,100.080426 769.468551,89.9477562 C766.423213,79.8150866 762.13212,71.1775307 756.595142,64.0348292 C751.058164,56.8921277 744.303152,51.4106018 736.329904,47.5900871 C728.356656,43.7695723 719.497624,41.8593436 709.752543,41.8593436 L709.752543,41.8593436 Z M936.689417,243.847287 L889.348492,243.847287 L825.895043,4.15271266 L877.887005,4.15271266 L915.593636,177.736102 L916.922504,177.736102 L961.771801,4.15271266 L1004.12947,4.15271266 L1048.97877,177.736102 L1050.30764,177.736102 L1088.18037,4.15271266 L1140.17234,4.15271266 L1076.55278,243.847287 L1029.21185,243.847287 L983.698124,80.0643001 L982.203147,80.0643001 L936.689417,243.847287 Z M1156.48362,243.847287 L1156.48362,4.15271266 L1198.34297,4.15271266 L1310.3001,160.294709 L1311.62897,160.294709 L1311.62897,4.15271266 L1359.63433,4.15271266 L1359.63433,243.847287 L1318.1072,243.847287 L1205.98396,86.8747488 L1204.48898,86.8747488 L1204.48898,243.847287 L1156.48362,243.847287 Z" id="KOWN" fill="#45496D"></path>
                <g id="31337" fill="#4F6DA1">
                    <path d="M73.6962308,220.99253 C80.0347828,227.172691 80.0347828,237.184882 73.6962308,243.365044 C70.5266168,246.455454 66.36447,248 62.2023232,248 C58.061136,248 53.9199487,246.454795 50.7503346,243.365044 C18.022447,211.475411 0,169.079175 0,124.005198 C0,78.9312208 18.0014876,36.5356434 50.7084157,4.68688225 C57.0469676,-1.49327912 67.3157599,-1.49327912 73.6543118,4.68688225 C79.9928638,10.8670436 79.9928638,20.8792346 73.6543118,27.059396 C47.0743126,52.9336716 32.453386,87.3777709 32.453386,124.005198 C32.453386,160.632624 47.095272,195.077383 73.6962308,220.99253 L73.6962308,220.99253 Z M295.419116,4.62491583 C289.059605,-1.55524554 278.790813,-1.5348098 272.47322,4.64535156 C266.134668,10.8255129 266.134668,20.8377039 272.47322,27.0178653 C299.074179,52.9125766 313.716065,87.356676 313.716065,124.005198 C313.716065,160.633284 299.095139,195.056288 272.536775,220.972094 C266.198223,227.152256 266.198223,237.164447 272.536775,243.344608 C275.706389,246.435018 279.868536,247.979564 284.009723,247.979564 C288.17187,247.979564 292.313057,246.434359 295.482671,243.344608 C328.167964,211.454316 346.169451,169.079175 346.169451,124.005198 C346.169451,78.8903493 328.147004,36.4941127 295.419116,4.62491583 L295.419116,4.62491583 Z M102.769056,124.005198 C102.769056,105.691484 110.079857,88.4898704 123.348559,75.5112019 C129.687111,69.3310405 129.687111,59.3188495 123.348559,53.1386881 C117.010007,46.9585268 106.741215,46.9585268 100.402663,53.1386881 C81.0070321,72.0918422 70.3156698,97.2449342 70.3156698,124.005198 C70.3156698,150.785897 81.0070321,175.960084 100.445258,194.871048 C103.614872,197.961458 107.756059,199.506004 111.918206,199.506004 C116.080353,199.506004 120.22154,197.960799 123.391154,194.871048 C129.729706,188.690887 129.729706,178.65826 123.391154,172.498534 C110.079857,159.540961 102.769056,142.340006 102.769056,124.005198 L102.769056,124.005198 Z M245.724869,53.1393473 C239.365358,46.9387503 229.096565,46.9796217 222.778973,53.1393473 C216.440421,59.3195087 216.440421,69.3316997 222.778973,75.5118611 C236.068635,88.4694346 243.400395,105.691484 243.400395,124.005198 C243.400395,142.340006 236.089594,159.562056 222.820892,172.499193 C216.48234,178.679355 216.48234,188.691546 222.820892,194.871707 C225.990506,197.962118 230.131693,199.506663 234.29384,199.506663 C238.455987,199.506663 242.597174,197.961458 245.766788,194.871707 C265.163095,175.960084 275.853781,150.785897 275.853781,124.005198 C275.853781,97.2244984 265.163095,72.0714065 245.724869,53.1393473 L245.724869,53.1393473 Z M173.084726,92.3627715 C155.167752,92.3627715 140.63134,106.535942 140.63134,124.005198 C140.63134,141.49489 155.167752,155.647624 173.084726,155.647624 C191.022659,155.647624 205.538112,141.49489 205.538112,124.005198 C205.538112,106.535942 191.022659,92.3627715 173.084726,92.3627715 L173.084726,92.3627715 Z" id="Shape"></path>
                </g>
            </g>
        </g>
    </g>
</svg>