<?xml version="1.0" encoding="UTF-8" standalone="no"?>
<svg width="1000px" height="1000px" viewBox="0 0 1000 1000" version="1.1" xmlns="http://www.w3.org/2000/svg" xmlns:xlink="http://www.w3.org/1999/xlink">
    <!-- Generator: Sketch Beta 39.1 (31721) - http://www.bohemiancoding.com/sketch -->
    <title>Social Icon</title>
    <desc>Created with Sketch Beta.</desc>
    <defs></defs>
    <g id="Page-1" stroke="none" stroke-width="1" fill="none" fill-rule="evenodd" opacity="0.95">
        <g id="Social-Icon">
            <g id="Group" transform="translate(124.000000, 90.000000)">
                <path d="M0,816.719776 L0,629.5537 L39.1712786,629.5537 L39.1712786,714.900393 L40.3386345,714.900393 L110.639406,629.5537 L154.220696,629.5537 L84.9575744,712.565681 L159.019826,816.719776 L112.195881,816.719776 L56.6816183,738.506925 L39.1712786,759.519333 L39.1712786,816.719776 L0,816.719776 Z M243.873192,626.311044 C257.708592,626.311044 270.203499,628.559263 281.35829,633.055768 C292.513081,637.552273 302.003157,643.994284 309.828805,652.381995 C317.654453,660.769705 323.664114,670.951542 327.85797,682.92781 C332.051825,694.904077 334.148722,708.328537 334.148722,723.201591 C334.148722,738.074645 332.051825,751.477487 327.85797,763.410519 C323.664114,775.343551 317.654453,785.50377 309.828805,793.891481 C302.003157,802.279192 292.513081,808.721203 281.35829,813.217708 C270.203499,817.714213 257.708592,819.962431 243.873192,819.962431 C229.951322,819.962431 217.434796,817.714213 206.323241,813.217708 C195.211686,808.721203 185.743227,802.279192 177.917579,793.891481 C170.091931,785.50377 164.08227,775.343551 159.888414,763.410519 C155.694559,751.477487 153.597663,738.074645 153.597663,723.201591 C153.597663,708.328537 155.694559,694.904077 159.888414,682.92781 C164.08227,670.951542 170.091931,660.769705 177.917579,652.381995 C185.743227,643.994284 195.211686,637.552273 206.323241,633.055768 C217.434796,628.559263 229.951322,626.311044 243.873192,626.311044 L243.873192,626.311044 Z M243.873192,658.997012 C236.177251,658.997012 229.238038,660.488618 223.055344,663.471876 C216.87265,666.455134 211.597983,670.735397 207.231185,676.312792 C202.864387,681.890188 199.492059,688.634844 197.1141,696.546963 C194.73614,704.459082 193.547179,713.343869 193.547179,723.201591 C193.547179,732.972842 194.73614,741.814394 197.1141,749.726513 C199.492059,757.638632 202.864387,764.361671 207.231185,769.89583 C211.597983,775.42999 216.87265,779.688635 223.055344,782.671893 C229.238038,785.655151 236.177251,787.146758 243.873192,787.146758 C251.482662,787.146758 258.400258,785.655151 264.626187,782.671893 C270.852117,779.688635 276.126784,775.42999 280.450346,769.89583 C284.773909,764.361671 288.124619,757.638632 290.502578,749.726513 C292.880538,741.814394 294.069499,732.972842 294.069499,723.201591 C294.069499,713.343869 292.880538,704.459082 290.502578,696.546963 C288.124619,688.634844 284.773909,681.890188 280.450346,676.312792 C276.126784,670.735397 270.852117,666.455134 264.626187,663.471876 C258.400258,660.488618 251.482662,658.997012 243.873192,658.997012 L243.873192,658.997012 Z M421.077387,816.719776 L384.111114,816.719776 L334.563338,629.5537 L375.161385,629.5537 L404.604697,765.0967 L405.642347,765.0967 L440.663026,629.5537 L473.738113,629.5537 L508.758792,765.0967 L509.796442,765.0967 L539.36946,629.5537 L579.967507,629.5537 L530.290025,816.719776 L493.323752,816.719776 L457.784247,688.829443 L456.616891,688.829443 L421.077387,816.719776 Z M592.704214,816.719776 L592.704214,629.5537 L625.390182,629.5537 L712.812175,751.477547 L713.849824,751.477547 L713.849824,629.5537 L751.334922,629.5537 L751.334922,816.719776 L718.908367,816.719776 L631.356668,694.147398 L630.189312,694.147398 L630.189312,816.719776 L592.704214,816.719776 Z" id="KOWN" fill="#45496D"></path>
                <g id="31337" fill="#4F6DA1">
                    <path d="M159.768442,479.091179 C173.509994,492.489192 173.509994,514.194688 159.768442,527.592701 C152.896934,534.292422 143.873681,537.640853 134.850428,537.640853 C125.872615,537.640853 116.894801,534.290993 110.023292,527.592701 C39.0714459,458.458954 0,366.54787 0,268.831695 C0,171.11552 39.0260072,79.2058649 109.932415,10.1607233 C123.673966,-3.23728976 145.936013,-3.23728976 159.677565,10.1607233 C173.419117,23.5587363 173.419117,45.2642319 159.677565,58.662245 C102.053925,114.755259 70.3567453,189.426852 70.3567453,268.831695 C70.3567453,348.236537 102.099364,422.909559 159.768442,479.091179 L159.768442,479.091179 Z M640.448658,10.0263859 C626.661667,-3.37162717 604.399621,-3.32732441 590.703507,10.0706886 C576.961956,23.4687016 576.961956,45.1741973 590.703507,58.5722103 C648.372586,114.709528 680.115205,189.38112 680.115205,268.831695 C680.115205,348.237966 648.418025,422.863827 590.841289,479.046876 C577.099738,492.444889 577.099738,514.150385 590.841289,527.548398 C597.712798,534.248119 606.736051,537.59655 615.713865,537.59655 C624.737117,537.59655 633.714931,534.24669 640.58644,527.548398 C711.445943,458.413222 750.47195,366.54787 750.47195,268.831695 C750.47195,171.026914 711.400504,79.1158303 640.448658,10.0263859 L640.448658,10.0263859 Z M222.79636,268.831695 C222.79636,229.129273 238.645683,191.83778 267.411331,163.701238 C281.152883,150.303225 281.152883,128.597729 267.411331,115.199716 C253.669779,101.801703 231.407733,101.801703 217.666181,115.199716 C175.617765,156.288385 152.439615,210.817941 152.439615,268.831695 C152.439615,326.889751 175.617765,381.465039 217.758524,422.462244 C224.630033,429.161965 233.607847,432.510396 242.631099,432.510396 C251.654352,432.510396 260.632166,429.160536 267.503674,422.462244 C281.245226,409.064231 281.245226,387.314433 267.503674,373.960722 C238.645683,345.869912 222.79636,308.579848 222.79636,268.831695 L222.79636,268.831695 Z M532.714892,115.201145 C518.927901,101.75883 496.665854,101.847435 482.969741,115.201145 C469.228189,128.599158 469.228189,150.304654 482.969741,163.702667 C511.780828,191.793477 527.67559,229.129273 527.67559,268.831695 C527.67559,308.579848 511.826267,345.915644 483.060619,373.962151 C469.319067,387.360164 469.319067,409.06566 483.060619,422.463673 C489.932127,429.163394 498.909941,432.511826 507.933194,432.511826 C516.956446,432.511826 525.93426,429.161965 532.805769,422.463673 C574.855651,381.465039 598.032335,326.889751 598.032335,268.831695 C598.032335,210.773638 574.855651,156.244083 532.714892,115.201145 L532.714892,115.201145 Z M375.235975,200.233868 C336.393188,200.233868 304.87923,230.959978 304.87923,268.831695 C304.87923,306.747714 336.393188,337.429521 375.235975,337.429521 C414.1242,337.429521 445.59272,306.747714 445.59272,268.831695 C445.59272,230.959978 414.1242,200.233868 375.235975,200.233868 L375.235975,200.233868 Z" id="Shape"></path>
                </g>
            </g>
        </g>
    </g>
</svg>